<?xml version="1.0" standalone="no"?><!DOCTYPE svg PUBLIC "-//W3C//DTD SVG 1.1//EN" "http://www.w3.org/Graphics/SVG/1.1/DTD/svg11.dtd"><svg t="1727490080439" class="icon" viewBox="0 0 1024 1024" version="1.1" xmlns="http://www.w3.org/2000/svg" p-id="6860" xmlns:xlink="http://www.w3.org/1999/xlink" width="200" height="200"><path d="M722.438 510.815c-0.246-0.246-0.513-0.454-0.766-0.69l-299.893-299.892c-14.231-14.24-37.291-14.24-51.529 0-14.241 14.231-14.241 37.291 0 51.529l274.851 274.859-274.849 274.851c-14.241 14.237-14.241 37.301 0 51.532 7.116 7.119 16.436 10.682 25.764 10.682 9.321 0 18.644-3.563 25.763-10.682l299.905-299.901c0.246-0.234 0.51-0.438 0.751-0.678 7.129-7.13 10.685-16.469 10.674-25.804 0.006-9.337-3.55-18.676-10.674-25.804z" fill="#272636" p-id="6861"></path></svg>