<?xml version="1.0" standalone="no"?><!DOCTYPE svg PUBLIC "-//W3C//DTD SVG 1.1//EN" "http://www.w3.org/Graphics/SVG/1.1/DTD/svg11.dtd"><svg t="1727500929920" class="icon" viewBox="0 0 1024 1024" version="1.1" xmlns="http://www.w3.org/2000/svg" p-id="2324" xmlns:xlink="http://www.w3.org/1999/xlink" width="200" height="200"><path d="M512 0C229.696 0 0 196.672 0 438.421333c0 144.384 82.282667 278.336 220.778667 360.469333l0 203.733333c0 8.213333 4.714667 15.744 12.181333 19.285333C235.882667 1023.338667 239.04 1024 242.154667 1024c4.8 0 9.578667-1.621333 13.461333-4.8l181.589333-147.456c26.794667 3.413333 51.370667 5.077333 74.794667 5.077333 282.282667 0 512-196.693333 512-438.421333C1024 196.672 794.282667 0 512 0zM512.021333 834.090667c-24.106667 0-49.664-1.941333-78.144-5.952-5.845333-0.874667-11.84 0.832-16.448 4.586667l-153.92 125.034667 0-171.2c0-7.701333-4.16-14.848-10.901333-18.602667-131.413333-73.813333-209.877333-197.013333-209.877333-329.514667C42.730667 220.245333 253.269333 42.730667 512 42.730667s469.312 177.472 469.312 395.648S770.773333 834.090667 512.021333 834.090667z" p-id="2325"></path><path d="M512 438.4m-49.066667 0a2.3 2.3 0 1 0 98.133333 0 2.3 2.3 0 1 0-98.133333 0Z" p-id="2326"></path><path d="M266.709333 438.4m-49.066667 0a2.3 2.3 0 1 0 98.133333 0 2.3 2.3 0 1 0-98.133333 0Z" p-id="2327"></path><path d="M757.290667 389.333333c-27.114667 0-49.024 21.952-49.024 49.088 0 27.136 21.888 49.045333 49.024 49.045333 27.157333 0 49.088-21.909333 49.088-49.045333C806.378667 411.285333 784.448 389.333333 757.290667 389.333333z" p-id="2328"></path></svg>