<?xml version="1.0" standalone="no"?><!DOCTYPE svg PUBLIC "-//W3C//DTD SVG 1.1//EN" "http://www.w3.org/Graphics/SVG/1.1/DTD/svg11.dtd"><svg t="1727516507617" class="icon" viewBox="0 0 1024 1024" version="1.1" xmlns="http://www.w3.org/2000/svg" p-id="4860" id="mx_n_1727516507618" xmlns:xlink="http://www.w3.org/1999/xlink" width="200" height="200"><path d="M493.75104 585.130667A292.522667 292.522667 0 0 0 786.273707 292.693333a285.269333 285.269333 0 0 0-40.96-146.261333 292.522667 292.522667 0 1 0-251.562667 438.784zM666.380373 676.693333a266.24 266.24 0 0 0-99.498666-18.261333H420.620373a271.36 271.36 0 0 0-73.130666 9.386667 292.522667 292.522667 0 0 0-134.570667 73.216A292.522667 292.522667 0 0 0 128.012373 950.869333c0 40.362667 32.768 73.130667 73.130667 73.130667h585.130667a73.130667 73.130667 0 0 0 73.130666-73.130667 219.392 219.392 0 0 0 0-38.058666A292.522667 292.522667 0 0 0 666.465707 676.693333z" fill="#1296db" p-id="4861"></path></svg>