<?xml version="1.0" standalone="no"?><!DOCTYPE svg PUBLIC "-//W3C//DTD SVG 1.1//EN" "http://www.w3.org/Graphics/SVG/1.1/DTD/svg11.dtd"><svg t="1727530292848" class="icon" viewBox="0 0 1024 1024" version="1.1" xmlns="http://www.w3.org/2000/svg" p-id="9740" xmlns:xlink="http://www.w3.org/1999/xlink" width="200" height="200"><path d="M928 480c17.6 0 32 14.4 32 32s-14.4 32-32 32h-48v112h48c17.6 0 32 14.4 32 32s-14.4 32-32 32h-48v96c0 35.2-28.8 64-64 64h-96v48c0 17.6-14.4 32-32 32s-32-14.4-32-32v-48h-112v48c0 17.6-14.4 32-32 32s-32-14.4-32-32v-48h-112v48c0 17.6-14.4 32-32 32s-32-14.4-32-32v-48h-96c-35.2 0-64-28.8-64-64v-96H96c-17.6 0-32-14.4-32-32s14.4-32 32-32h48v-112H96c-17.6 0-32-14.4-32-32s14.4-32 32-32h48v-112H96c-17.6 0-32-14.4-32-32s14.4-32 32-32h48v-96c0-35.2 28.8-64 64-64h96V96c0-17.6 14.4-32 32-32s32 14.4 32 32v48h112V96c0-17.6 14.4-32 32-32s32 14.4 32 32v48h112V96c0-17.6 14.4-32 32-32s32 14.4 32 32v48h96c35.2 0 64 28.8 64 64v96h48c17.6 0 32 14.4 32 32s-14.4 32-32 32h-48v112h48z m-112-256c0-9.6-6.4-16-16-16H224c-9.6 0-16 6.4-16 16v576c0 9.6 6.4 16 16 16h576c9.6 0 16-6.4 16-16V224zM656 720H368c-35.2 0-64-28.8-64-64V368c0-35.2 28.8-64 64-64h288c35.2 0 64 28.8 64 64v288c0 35.2-28.8 64-64 64z m0-336c0-9.6-6.4-16-16-16H384c-9.6 0-16 6.4-16 16v256c0 9.6 6.4 16 16 16h256c9.6 0 16-6.4 16-16V384z" fill="#333333" p-id="9741"></path></svg>