<?xml version="1.0" standalone="no"?><!DOCTYPE svg PUBLIC "-//W3C//DTD SVG 1.1//EN" "http://www.w3.org/Graphics/SVG/1.1/DTD/svg11.dtd"><svg t="1727530230497" class="icon" viewBox="0 0 1024 1024" version="1.1" xmlns="http://www.w3.org/2000/svg" p-id="8433" xmlns:xlink="http://www.w3.org/1999/xlink" width="200" height="200"><path d="M125.32 104.38c17.85-11.03 38.76-16.98 59.75-17.13 209.97 0.01 419.95 0 629.93 0 16.35 0.19 32.96-1.07 48.99 2.94 32.1 7.19 60.46 28.86 76.07 57.78 9.4 17.08 14.08 36.57 14.18 56.04 0.03 148.32 0 296.64 0.01 444.97-0.07 14.74 0.64 29.68-2.57 44.19-6.82 33.47-29.42 63.15-59.66 78.94-17.45 9.27-37.3 13.7-57.02 13.4-99.91-0.03-199.82 0.01-299.73-0.02-0.09 34.89 0.09 69.78-0.09 104.67 90.28 0.22 180.57 0.02 270.86 0.1 6.69-0.01 13.27 3.09 17.56 8.22 5.29 6.01 6.77 14.89 4.28 22.43-2.43 7.59-9.15 13.61-16.93 15.27-3.6 0.85-7.32 0.52-10.97 0.57-194-0.01-388 0.01-582.01-0.01-6.67 0.01-13.24-3.07-17.54-8.17-5.11-5.79-6.67-14.24-4.6-21.59 2.11-7.66 8.55-13.91 16.21-15.92 3.88-1.12 7.96-0.78 11.95-0.81h264.75c0.01-34.92 0.01-69.83 0.01-104.75-99.92 0.01-199.85-0.01-299.77 0.01-18.23 0.26-36.57-3.46-53.02-11.4-28.49-13.54-50.98-39.16-60.54-69.24-3.91-11.88-5.56-24.4-5.67-36.87-0.01-147.99 0-295.98 0-443.98 0.09-14.38-0.65-28.92 2.29-43.1 6.05-31.46 25.92-59.89 53.28-76.54m49.19 30.38c-24.05 3.96-45.25 21.45-53.66 44.34-4.29 10.75-4.85 22.47-4.6 33.91v441.01c0.02 11.37-0.56 23 2.76 34.03 6.41 23.18 25.61 42.22 48.84 48.41 12.07 3.5 24.74 2.35 37.13 2.54 209.33 0 418.67-0.01 628 0.01 8.69 0.18 17.47-0.64 25.77-3.32 21.31-6.62 38.84-24.06 45.53-45.35 4.04-11.69 3.48-24.21 3.47-36.38V217.98c-0.06-7.66 0.28-15.35-0.66-22.98-2.16-17.74-11.51-34.48-25.46-45.65-12.2-9.93-27.83-15.54-43.56-15.61-217.7 0.02-435.4-0.01-653.1 0.02-3.51 0.07-7.01 0.42-10.46 1z" p-id="8434"></path><path d="M358.45 230.58c14.17-0.2 28.35-0.02 42.53-0.08 5.66 0.08 11.36-0.29 17.01 0.42 15.65 1.78 30.61 9.12 41.55 20.46 12.52 12.48 19.65 30 19.94 47.63 0.06 15.32-0.01 30.64 0.03 45.97 0.09 8.69-1.19 17.44-4.18 25.63-6.86 19.13-22.57 34.86-41.73 41.67-8.48 3.14-17.58 4.35-26.59 4.23-14.33-0.02-28.66-0.01-42.98 0-20.9 0.31-41.64-9.28-54.8-25.53-9.89-12-15.62-27.4-15.74-42.97 0.01-15.68 0.02-31.35-0.01-47.02-0.34-16.21 5.36-32.45 15.66-44.95 11.95-14.85 30.3-24.26 49.31-25.46m0.83 46.72c-10.74 1.7-19.45 11.75-19.28 22.68 0 15.66 0 31.33-0.01 46.99-0.02 8.46 5.1 16.67 12.69 20.4 4.67 2.56 10.12 2.77 15.32 2.64 14.35-0.1 28.71 0.13 43.06-0.1 11.41-0.49 21.43-10.44 21.84-21.88 0.25-15.02 0-30.06 0.12-45.09 0.09-4.55-0.47-9.24-2.67-13.29-3.87-7.9-12.6-13.03-21.37-12.67-16.56 0.24-33.17-0.39-49.7 0.32zM600.43 230.56c16.84-0.15 33.67 0 50.51-0.08 13.28-0.19 26.55 3.69 37.74 10.82 18.91 11.9 31.4 33.3 32.22 55.66 0.25 15.68 0.01 31.36 0.11 47.04 0.15 10.02-1.4 20.15-5.32 29.41-8.03 19.83-25.77 35.36-46.49 40.73-13.42 3.65-27.43 1.99-41.15 2.36-15.06-0.37-30.59 1.56-45.11-3.47-26.61-8.37-46.61-34.09-47.86-62.01-0.2-16.67 0-33.35-0.1-50.02-0.34-16.56 5.59-33.15 16.32-45.76 12.06-14.51 30.29-23.65 49.13-24.68m-1.03 47.02c-10.49 2.35-18.51 12.63-17.92 23.42 0.07 15.67-0.03 31.35 0.05 47.02 0.35 11.66 10.74 21.64 22.33 21.91 13.38 0.17 26.76 0.02 40.14 0.07 5.63 0.06 11.53 0.36 16.76-2.14 8.04-3.62 13.62-12.02 13.71-20.86 0.04-15.68 0.05-31.36 0-47.04 0-11.59-9.7-22.21-21.33-22.89-15.05-0.18-30.1 0.01-45.15-0.09-2.88-0.01-5.78-0.07-8.59 0.6zM623.25 440.33c18.66-1.28 37.73 5.26 51.53 17.92 11.77 11.54 23.32 23.32 35.04 34.92 11.07 10.81 18.29 25.46 20.23 40.8 2.9 21.82-5.15 44.77-21.36 59.73-10.19 10.17-20.38 20.35-30.55 30.55-14.92 15.86-37.6 23.64-59.15 20.81-15.34-1.94-29.98-9.15-40.79-20.22-11.3-11.37-22.69-22.66-33.99-34.03-12.37-12.96-19.34-30.9-18.99-48.81 0.07-17.74 7.4-35.26 19.81-47.91 11.35-11.34 22.69-22.68 34.03-34.03 11.76-11.56 27.73-18.7 44.19-19.73m-0.06 46.86c-4.37 0.97-8.52 3.12-11.64 6.37-11.29 11.36-22.68 22.63-33.96 34.01-8.16 8.64-7.71 23.65 1.05 31.72 11.39 11.3 22.67 22.72 34.07 34.01 6.95 6.52 18.15 7.54 26.37 2.89 3.81-2.1 6.72-5.39 9.77-8.42 7.98-7.98 15.96-15.96 23.94-23.93 3.01-3.04 6.29-5.95 8.38-9.75 4.2-7.38 3.81-17.14-1.04-24.12-1.67-2.36-3.83-4.29-5.85-6.31-10.18-10.17-20.35-20.35-30.52-30.53-5.28-5.28-13.3-7.47-20.57-5.94zM352.48 450.74c3.16-0.5 6.37-0.76 9.58-0.75 16.29 0.02 32.58 0.01 48.87 0 14.5 0.11 28.9 5.04 40.5 13.75 12.58 9.38 21.92 23.07 25.78 38.3 3.55 13.02 1.92 26.63 2.29 39.94-0.43 14.89 1.55 30.21-3.02 44.66-6.9 23.27-26.86 42.05-50.54 47.43-10.09 2.54-20.57 1.84-30.88 1.93-10.69-0.01-21.39 0.01-32.08 0-13.56-0.08-27.1-4.08-38.38-11.64-16.39-10.81-27.89-28.8-30.47-48.3-0.91-5.64-0.59-11.36-0.63-17.05-0.01-13.68 0.01-27.35-0.01-41.03 0.24-15.69 6.12-31.22 16.27-43.19 10.67-12.86 26.19-21.55 42.72-24.05m3.91 46.75c-9.25 2.77-16.3 11.8-16.38 21.52-0.02 16.01-0.02 32.02 0 48.03 0.1 11.7 10.38 21.95 22.01 22.37 15.65 0.2 31.32 0.03 46.98 0.09 6.43 0.05 12.93-2.45 17.36-7.17 4.59-4.5 6.79-11.02 6.65-17.38-0.07-15.35 0.09-30.7-0.07-46.05-0.26-11.61-10.25-22.02-21.93-22.37-15.01-0.08-30.01 0.02-45.02-0.05-3.22-0.04-6.51-0.01-9.6 1.01z" p-id="8435"></path></svg>