<?xml version="1.0" standalone="no"?><!DOCTYPE svg PUBLIC "-//W3C//DTD SVG 1.1//EN" "http://www.w3.org/Graphics/SVG/1.1/DTD/svg11.dtd"><svg t="1727530155932" class="icon" viewBox="0 0 1024 1024" version="1.1" xmlns="http://www.w3.org/2000/svg" p-id="7100" xmlns:xlink="http://www.w3.org/1999/xlink" width="200" height="200"><path d="M665.736533 236.407467c0-18.8416-15.223467-34.065067-33.928533-34.065067H223.8464c-18.705067 0-33.928533 15.223467-33.928533 34.065067 0 18.8416 15.223467 34.065067 33.928533 34.065066h407.9616c18.705067-0.068267 33.928533-15.223467 33.928533-34.065066z m0 204.253866c0-18.8416-15.223467-34.065067-33.928533-34.065066H223.8464c-18.705067 0-33.928533 15.223467-33.928533 34.065066 0 18.8416 15.223467 34.065067 33.928533 34.065067h407.9616c18.705067 0 33.928533-15.223467 33.928533-34.065067zM223.8464 610.9184c-18.705067 0-33.928533 15.223467-33.928533 34.065067 0 18.8416 15.223467 34.065067 33.928533 34.065066h203.9808c18.705067 0 33.928533-15.223467 33.928533-34.065066 0-18.8416-15.223467-34.065067-33.928533-34.065067H223.8464z m0 0" p-id="7101"></path><path d="M529.8176 883.3024c0-18.8416-15.223467-34.065067-33.928533-34.065067H153.736533c-18.705067 0-33.928533-15.223467-33.928533-34.065066V134.212267c0-18.8416 15.223467-34.065067 33.928533-34.065067h546.474667c18.705067 0 33.928533 15.223467 33.928533 34.065067v306.449066c0 18.8416 15.223467 34.065067 33.928534 34.065067 18.705067 0 33.928533-15.223467 33.928533-34.065067V100.215467c0-37.546667-30.446933-68.130133-67.857067-68.130134h-614.4C82.3296 32.085333 51.882667 62.600533 51.882667 100.215467V849.237333c0 37.546667 30.446933 68.130133 67.857066 68.130134h376.149334c18.8416 0 33.928533-15.223467 33.928533-34.065067z m0 0" p-id="7102"></path><path d="M970.1376 916.2752h-32.9728v-135.168c0-37.546667-30.5152-68.130133-68.130133-68.130133h-68.130134V610.9184h68.130134c18.8416 0 34.065067-15.223467 34.065066-34.065067 0-18.8416-15.223467-34.065067-34.065066-34.065066H666.897067c-18.8416 0-34.065067 15.223467-34.065067 34.065066 0 18.8416 15.223467 34.065067 34.065067 34.065067h65.9456v102.126933h-68.130134c-37.546667 0-68.130133 30.5152-68.130133 68.130134v135.168H562.517333c-18.8416 0-34.065067 15.223467-34.065066 34.065066 0 18.8416 15.223467 34.065067 34.065066 34.065067h407.552c18.8416 0 34.065067-15.223467 34.065067-34.065067 0.068267-18.909867-15.1552-34.133333-33.9968-34.133333z m-305.3568-135.099733H869.034667v135.168H664.7808v-135.168z m0 0" p-id="7103"></path></svg>