<?xml version="1.0" standalone="no"?><!DOCTYPE svg PUBLIC "-//W3C//DTD SVG 1.1//EN" "http://www.w3.org/Graphics/SVG/1.1/DTD/svg11.dtd"><svg t="1727487551888" class="icon" viewBox="0 0 1024 1024" version="1.1" xmlns="http://www.w3.org/2000/svg" p-id="4933" xmlns:xlink="http://www.w3.org/1999/xlink" width="200" height="200"><path d="M511.999817 511.999817m-511.999817 0a511.999817 511.999817 0 1 0 1023.999634 0 511.999817 511.999817 0 1 0-1023.999634 0Z" fill="#F1F1F1" p-id="4934"></path><path d="M511.999817 716.799744c140.79995 0 264.959905 71.021689 338.687879 179.199936A510.098104 510.098104 0 0 1 511.999817 1023.999634a510.061532 510.061532 0 0 1-338.687879-128.036525A409.23414 409.23414 0 0 1 511.999817 716.799744z" fill="#CCCCCC" p-id="4935"></path><path d="M307.19989 422.399849a217.599922 204.799927 90 1 0 409.599854 0 217.599922 204.799927 90 1 0-409.599854 0Z" fill="#CCCCCC" p-id="4936"></path></svg>